# xmcd CD database file
#
# Track frame offsets:
#	150
#	71162
#	112857
#	190410
#	275132
#
# Disc length: 4282 seconds
#
# Revision: 0
# Processed by: cddbd v1.5.1PL2 Copyright (c) Steve Scherf et al.
# Submitted via: CDex 1.51
#
DISCID=4a10b805
DTITLE=飛頭 - Crumbling Steeple
DYEAR=2006
DGENRE=Jazz
TTITLE0=Midnight Office
TTITLE1=Abstract Flowers
TTITLE2=Crumbling Steeple
TTITLE3=Time Remembered
TTITLE4=夜の東京放射16号
EXTD=YEAR: 2006
EXTT0=
EXTT1=
EXTT2=
EXTT3=
EXTT4=
PLAYORDER=
